<svg width="324" height="69" viewBox="0 0 324 69" fill="none" xmlns="http://www.w3.org/2000/svg">
<path d="M40.2695 6.50391H22.7266V54H18.4023V6.50391H0.894531V2.8125H40.2695V6.50391ZM62.4883 19.5469C61.5977 19.3828 60.6484 19.3008 59.6406 19.3008C57.0156 19.3008 54.7891 20.0391 52.9609 21.5156C51.1562 22.9688 49.8672 25.0898 49.0938 27.8789V54H44.9102V15.9609H49.0234L49.0938 22.0078C51.3203 17.5078 54.8945 15.2578 59.8164 15.2578C60.9883 15.2578 61.9141 15.4102 62.5938 15.7148L62.4883 19.5469ZM91.7734 54C91.3516 52.8047 91.082 51.0352 90.9648 48.6914C89.4883 50.6133 87.6016 52.1016 85.3047 53.1562C83.0312 54.1875 80.6172 54.7031 78.0625 54.7031C74.4062 54.7031 71.4414 53.6836 69.168 51.6445C66.918 49.6055 65.793 47.0273 65.793 43.9102C65.793 40.207 67.3281 37.2773 70.3984 35.1211C73.4922 32.9648 77.793 31.8867 83.3008 31.8867H90.9297V27.5625C90.9297 24.8438 90.0859 22.7109 88.3984 21.1641C86.7344 19.5938 84.2969 18.8086 81.0859 18.8086C78.1562 18.8086 75.7305 19.5586 73.8086 21.0586C71.8867 22.5586 70.9258 24.3633 70.9258 26.4727L66.707 26.4375C66.707 23.4141 68.1133 20.8008 70.9258 18.5977C73.7383 16.3711 77.1953 15.2578 81.2969 15.2578C85.5391 15.2578 88.8789 16.3242 91.3164 18.457C93.7773 20.5664 95.043 23.5195 95.1133 27.3164V45.3164C95.1133 48.9961 95.5 51.75 96.2734 53.5781V54H91.7734ZM78.5547 50.9766C81.3672 50.9766 83.875 50.2969 86.0781 48.9375C88.3047 47.5781 89.9219 45.7617 90.9297 43.4883V35.1211H83.4062C79.2109 35.168 75.9297 35.9414 73.5625 37.4414C71.1953 38.918 70.0117 40.957 70.0117 43.5586C70.0117 45.6914 70.7969 47.4609 72.3672 48.8672C73.9609 50.2734 76.0234 50.9766 78.5547 50.9766ZM117.648 48.1992L129.215 15.9609H133.539L119.336 54H115.926L101.652 15.9609H105.977L117.648 48.1992ZM154.703 54.7031C151.469 54.7031 148.539 53.9062 145.914 52.3125C143.312 50.7188 141.285 48.5039 139.832 45.668C138.379 42.8086 137.652 39.6094 137.652 36.0703V34.5586C137.652 30.9023 138.355 27.6094 139.762 24.6797C141.191 21.75 143.172 19.4531 145.703 17.7891C148.234 16.1016 150.977 15.2578 153.93 15.2578C158.547 15.2578 162.203 16.8398 164.898 20.0039C167.617 23.1445 168.977 27.4453 168.977 32.9062V35.2617H141.836V36.0703C141.836 40.3828 143.066 43.9805 145.527 46.8633C148.012 49.7227 151.129 51.1523 154.879 51.1523C157.129 51.1523 159.109 50.7422 160.82 49.9219C162.555 49.1016 164.125 47.7891 165.531 45.9844L168.168 47.9883C165.074 52.4648 160.586 54.7031 154.703 54.7031ZM153.93 18.8438C150.766 18.8438 148.094 20.0039 145.914 22.3242C143.758 24.6445 142.445 27.7617 141.977 31.6758H164.793V31.2188C164.676 27.5625 163.633 24.5859 161.664 22.2891C159.695 19.9922 157.117 18.8438 153.93 18.8438ZM181.879 54H177.66V0H181.879V54ZM206.418 33.1875H189.578V29.6367H206.418V33.1875ZM237.953 54C237.531 52.8047 237.262 51.0352 237.145 48.6914C235.668 50.6133 233.781 52.1016 231.484 53.1562C229.211 54.1875 226.797 54.7031 224.242 54.7031C220.586 54.7031 217.621 53.6836 215.348 51.6445C213.098 49.6055 211.973 47.0273 211.973 43.9102C211.973 40.207 213.508 37.2773 216.578 35.1211C219.672 32.9648 223.973 31.8867 229.48 31.8867H237.109V27.5625C237.109 24.8438 236.266 22.7109 234.578 21.1641C232.914 19.5938 230.477 18.8086 227.266 18.8086C224.336 18.8086 221.91 19.5586 219.988 21.0586C218.066 22.5586 217.105 24.3633 217.105 26.4727L212.887 26.4375C212.887 23.4141 214.293 20.8008 217.105 18.5977C219.918 16.3711 223.375 15.2578 227.477 15.2578C231.719 15.2578 235.059 16.3242 237.496 18.457C239.957 20.5664 241.223 23.5195 241.293 27.3164V45.3164C241.293 48.9961 241.68 51.75 242.453 53.5781V54H237.953ZM224.734 50.9766C227.547 50.9766 230.055 50.2969 232.258 48.9375C234.484 47.5781 236.102 45.7617 237.109 43.4883V35.1211H229.586C225.391 35.168 222.109 35.9414 219.742 37.4414C217.375 38.918 216.191 40.957 216.191 43.5586C216.191 45.6914 216.977 47.4609 218.547 48.8672C220.141 50.2734 222.203 50.9766 224.734 50.9766ZM283.129 35.3672C283.129 41.2969 281.816 46.0078 279.191 49.5C276.566 52.9688 273.051 54.7031 268.645 54.7031C263.441 54.7031 259.457 52.875 256.691 49.2188V68.625H252.508V15.9609H256.41L256.621 21.3398C259.363 17.2852 263.336 15.2578 268.539 15.2578C273.086 15.2578 276.648 16.9805 279.227 20.4258C281.828 23.8711 283.129 28.6523 283.129 34.7695V35.3672ZM278.91 34.6289C278.91 29.7773 277.914 25.9453 275.922 23.1328C273.93 20.3203 271.152 18.9141 267.59 18.9141C265.012 18.9141 262.797 19.5352 260.945 20.7773C259.094 22.0195 257.676 23.8242 256.691 26.1914V44.4375C257.699 46.6172 259.141 48.2812 261.016 49.4297C262.891 50.5781 265.105 51.1523 267.66 51.1523C271.199 51.1523 273.953 49.7461 275.922 46.9336C277.914 44.0977 278.91 39.9961 278.91 34.6289ZM323.066 35.3672C323.066 41.2969 321.754 46.0078 319.129 49.5C316.504 52.9688 312.988 54.7031 308.582 54.7031C303.379 54.7031 299.395 52.875 296.629 49.2188V68.625H292.445V15.9609H296.348L296.559 21.3398C299.301 17.2852 303.273 15.2578 308.477 15.2578C313.023 15.2578 316.586 16.9805 319.164 20.4258C321.766 23.8711 323.066 28.6523 323.066 34.7695V35.3672ZM318.848 34.6289C318.848 29.7773 317.852 25.9453 315.859 23.1328C313.867 20.3203 311.09 18.9141 307.527 18.9141C304.949 18.9141 302.734 19.5352 300.883 20.7773C299.031 22.0195 297.613 23.8242 296.629 26.1914V44.4375C297.637 46.6172 299.078 48.2812 300.953 49.4297C302.828 50.5781 305.043 51.1523 307.598 51.1523C311.137 51.1523 313.891 49.7461 315.859 46.9336C317.852 44.0977 318.848 39.9961 318.848 34.6289Z" fill="white"/>
</svg>
